<?xml version="1.0" encoding="UTF-8"?>
<!DOCTYPE svg PUBLIC "-//W3C//DTD SVG 1.1//EN" "http://www.w3.org/Graphics/SVG/1.1/DTD/svg11.dtd">
<svg version="1.1" xmlns="http://www.w3.org/2000/svg" xmlns:xlink="http://www.w3.org/1999/xlink" x="0" y="0" width="316" height="93" viewBox="0, 0, 316, 93">
  <g id="Background">
    <rect x="0" y="0" width="316" height="93" fill="#000000" fill-opacity="0"/>
  </g>
  <g id="Layer_1">
    <path d="M75.592,67.24 C75.592,68.63 75.899,69.928 76.115,70.619 C77.045,73.582 78.638,76.201 80.697,78.257 C83.638,81.193 87.437,82.979 91.706,82.979 C95.974,82.979 99.959,81.191 102.9,78.254 C104.958,76.199 106.55,73.58 107.478,70.619 C108.073,68.723 110,63.956 110,46.501 C110,29.045 108.073,24.278 107.478,22.383 C106.55,19.42 104.958,16.802 102.9,14.747 C99.959,11.81 95.974,10.022 91.706,10.022 C87.437,10.022 83.638,11.808 80.697,14.744 C78.638,16.8 77.045,19.419 76.115,22.383 C75.899,23.073 75.592,24.371 75.592,25.761 C75.592,25.854 75.516,25.929 75.423,25.929 C75.33,25.929 75.255,25.854 75.255,25.761 C75.255,24.371 74.947,23.073 74.73,22.383 C73.802,19.422 72.211,16.806 70.155,14.752 C67.214,11.812 63.319,10.022 59.049,10.022 C54.786,10.022 50.899,11.804 47.96,14.733 C45.896,16.79 44.299,19.414 43.367,22.383 C43.119,23.172 42.61,25.003 42.61,26.649 C42.61,26.742 42.535,26.817 42.442,26.817 C42.349,26.817 42.273,26.742 42.273,26.649 L42.275,22.689 L42.275,11.38 L10,11.38 L10,81.621 L42.275,81.621 L42.275,70.311 L42.273,66.352 C42.273,66.259 42.349,66.184 42.442,66.184 C42.535,66.184 42.61,66.259 42.61,66.352 C42.61,67.998 43.119,69.829 43.367,70.619 C44.299,73.588 45.896,76.211 47.96,78.268 C50.899,81.197 54.786,82.979 59.049,82.979 C63.319,82.979 67.214,81.189 70.155,78.249 C72.211,76.195 73.802,73.579 74.73,70.619 C74.947,69.928 75.255,68.63 75.255,67.24 C75.255,67.147 75.33,67.071 75.423,67.071 C75.516,67.071 75.592,67.147 75.592,67.24" fill="#FFFFFF"/>
    <path d="M293.527,6.279 C294.258,6.279 295.132,6.377 296.447,6.668 L297.565,1.949 C295.376,1.219 293.818,1.074 292.262,1.074 C287.105,1.074 284.185,3.702 284.185,9.15 L284.185,11.632 L279.903,11.632 L279.903,16.449 L284.185,16.449 L284.185,36.493 L290.51,36.493 L290.51,16.449 L296.056,16.449 L296.056,11.632 L290.51,11.632 L290.51,9.489 C290.51,7.106 291.533,6.279 293.527,6.279 M265.619,37.272 C258.029,37.272 252.678,31.921 252.678,24.038 C252.678,16.155 258.029,10.803 265.619,10.803 C273.16,10.803 278.512,16.155 278.512,24.038 C278.512,31.921 273.16,37.272 265.619,37.272 M265.619,16.155 C261.679,16.155 259.1,19.27 259.1,24.038 C259.1,28.855 261.679,31.921 265.619,31.921 C269.512,31.921 272.09,28.855 272.09,24.038 C272.09,19.27 269.512,16.155 265.619,16.155 M228.06,10.803 C221.394,10.803 217.696,14.356 217.696,18.589 C217.696,23.017 219.837,24.767 226.843,26.324 C230.395,27.103 232.974,27.491 232.974,29.537 C232.974,31.238 231.124,32.164 228.643,32.164 C225.724,32.164 223.778,31.432 220.129,28.467 L216.48,32.552 C220.519,36.153 223.925,37.272 228.498,37.272 C235.261,37.272 239.153,33.913 239.153,29.145 C239.153,24.525 236.331,22.724 229.519,21.216 C225.335,20.292 223.729,19.999 223.729,18.394 C223.729,16.934 225.384,15.914 227.914,15.914 C230.444,15.914 232.341,16.496 235.358,18.833 L238.762,14.697 C235.261,11.776 232.243,10.803 228.06,10.803 M211.955,11.341 C208.89,11.341 206.894,12.896 205.726,15.281 L205.726,11.632 L199.841,11.632 L199.841,36.493 L206.165,36.493 L206.165,24.232 C206.165,19.758 208.257,17.081 211.614,17.081 C212.442,17.081 213.463,17.225 214.777,17.568 L215.896,12.07 C214.388,11.632 213.317,11.341 211.955,11.341 M188.601,36.493 L188.601,33.916 C187.093,36.008 184.417,37.32 180.574,37.32 C175.854,37.32 171.67,35.276 171.67,30.218 C171.67,24.475 176.778,22.482 182.422,21.46 L188.261,20.39 L188.261,19.805 C188.261,17.372 186.46,16.011 183.59,16.011 C180.184,16.011 178.432,17.568 175.854,20.049 L171.863,16.399 C174.978,12.702 178.578,10.803 183.492,10.803 C190.645,10.803 194.293,14.454 194.293,19.708 L194.293,36.493 z M188.261,24.913 L184.077,25.789 C180.33,26.568 177.848,27.444 177.848,29.779 C177.848,31.336 179.26,32.261 181.644,32.261 C184.854,32.261 188.261,30.704 188.261,26.374 z M150.145,25.692 C150.68,29.293 152.821,31.921 157.152,31.921 C160.07,31.921 161.628,30.947 164.546,28.514 L168.099,32.408 C164.449,36.105 161.044,37.272 157.005,37.272 C148.977,37.272 143.966,32.114 143.966,24.184 C143.966,16.496 148.637,10.803 156.47,10.803 C164.059,10.803 168.099,15.573 168.099,23.212 C168.099,23.99 168.05,25.158 168.001,25.692 z M156.276,15.767 C152.918,15.767 150.971,17.957 150.291,21.167 L161.919,21.167 C161.676,17.859 159.729,15.767 156.276,15.767 M126.44,11.429 C126.44,11.429 130.848,24.193 131.772,27.356 C132.745,24.146 137.368,11.429 137.368,11.429 L143.79,11.429 L135.146,33.81 C133.492,38.626 130.118,41.895 125.593,41.895 C123.696,41.895 122.765,41.834 121.294,41.637 L121.457,37.038 C122.275,37.038 123.664,37.078 124.815,36.867 C126.395,36.575 127.928,36.252 128.756,33.722 L119.823,11.429 z M296.677,55.801 C290.001,55.801 286.299,59.357 286.299,63.595 C286.299,68.03 288.443,69.784 295.46,71.343 C299.015,72.121 301.598,72.512 301.598,74.558 C301.598,76.265 299.746,77.189 297.262,77.189 C294.338,77.189 292.389,76.459 288.734,73.486 L285.081,77.578 C289.125,81.185 292.535,82.305 297.117,82.305 C303.887,82.305 307.785,78.944 307.785,74.168 C307.785,69.539 304.96,67.736 298.138,66.227 C293.949,65.302 292.341,65.008 292.341,63.401 C292.341,61.939 293.998,60.917 296.531,60.917 C299.065,60.917 300.963,61.501 303.985,63.839 L307.396,59.697 C303.887,56.775 300.867,55.801 296.677,55.801 M275.239,56.629 L275.239,71.636 C275.239,75.093 273.193,76.799 270.123,76.799 C267.297,76.799 265.983,75.191 265.983,72.658 L265.983,56.629 L259.649,56.629 L259.649,74.411 C259.649,78.944 262.28,82.303 268.468,82.303 C272.219,82.303 274.557,80.892 275.775,78.893 L275.775,81.525 L281.573,81.525 L281.573,56.629 z M254.192,81.542 L254.192,64.732 C254.192,59.469 250.539,55.816 243.376,55.816 C238.457,55.816 234.851,57.715 231.731,61.419 L235.726,65.073 C238.31,62.588 240.063,61.03 243.472,61.03 C246.348,61.03 248.151,62.393 248.151,64.83 L248.151,65.416 L242.304,66.485 C236.651,67.51 231.536,69.507 231.536,75.257 C231.536,80.324 235.726,82.37 240.453,82.37 C244.301,82.37 246.981,81.055 248.492,78.959 L248.492,81.542 z M248.151,71.407 C248.151,75.742 244.74,77.302 241.524,77.302 C239.137,77.302 237.725,76.377 237.725,74.817 C237.725,72.479 240.209,71.602 243.96,70.823 L248.151,69.946 z M218.399,55.816 C215.28,55.816 212.894,56.986 211.335,58.887 L211.335,46.949 L205.001,46.949 L205.001,81.541 L211.335,81.541 L211.335,66.535 C211.335,63.416 213.428,61.272 216.353,61.272 C219.374,61.272 220.981,63.125 220.981,66.388 L220.981,81.541 L227.314,81.541 L227.314,64.488 C227.314,59.422 224.197,55.816 218.399,55.816 M193.112,56.644 L193.112,71.651 C193.112,75.111 191.067,76.816 187.997,76.816 C185.171,76.816 183.855,75.208 183.855,72.674 L183.855,56.644 L177.521,56.644 L177.521,74.428 C177.521,78.959 180.152,82.321 186.341,82.321 C190.092,82.321 192.43,80.908 193.649,78.91 L193.649,81.542 L199.446,81.542 L199.446,56.644 z M172.066,81.542 L172.066,64.732 C172.066,59.469 168.412,55.816 161.249,55.816 C156.328,55.816 152.723,57.715 149.604,61.419 L153.6,65.073 C156.182,62.588 157.936,61.03 161.346,61.03 C164.222,61.03 166.024,62.393 166.024,64.83 L166.024,65.416 L160.177,66.485 C154.525,67.51 149.409,69.507 149.409,75.257 C149.409,80.324 153.6,82.37 158.327,82.37 C162.174,82.37 164.854,81.055 166.365,78.959 L166.365,81.542 z M166.024,71.407 C166.024,75.742 162.613,77.302 159.396,77.302 C157.009,77.302 155.597,76.377 155.597,74.817 C155.597,72.479 158.083,71.602 161.833,70.823 L166.024,69.946 z M146.202,69.069 C146.202,61.028 141.525,55.912 135.192,55.912 C131.78,55.912 129.345,57.181 127.689,59.275 L127.689,47.837 L121.354,47.837 L121.354,81.542 L127.25,81.542 L127.25,78.373 C128.906,80.811 131.44,82.224 135.143,82.224 C141.476,82.224 146.202,77.157 146.202,69.069 M139.772,69.069 C139.772,73.794 137.287,76.717 133.681,76.717 C130.173,76.717 127.444,73.941 127.444,69.069 C127.444,64.294 130.075,61.37 133.729,61.37 C137.482,61.37 139.772,64.392 139.772,69.069" fill="#FFFFFF"/>
  </g>
</svg>
